HIERARCHY
ROOT Hips
{
	OFFSET -0.087744 88.518600 4.106688
	CHANNELS 6 Xposition Yposition Zposition Zrotation Yrotation Xrotation 
	JOINT Spine
	{
		OFFSET 0.000000 8.814246 -2.080107
		CHANNELS 3 Zrotation Yrotation Xrotation
		JOINT Spine1
		{
			OFFSET -0.000000 8.844141 -0.000000
			CHANNELS 3 Zrotation Yrotation Xrotation
			JOINT Spine2
			{
				OFFSET 0.000000 11.682268 0.000000
				CHANNELS 3 Zrotation Yrotation Xrotation
				JOINT Spine3
				{
					OFFSET 0.000000 11.746700 0.000000
					CHANNELS 3 Zrotation Yrotation Xrotation
					JOINT Neck
					{
						OFFSET 0.000000 17.658264 -0.000000
						CHANNELS 3 Zrotation Yrotation Xrotation
						JOINT Neck1
						{
							OFFSET -0.000000 5.101515 -0.000000
							CHANNELS 3 Zrotation Yrotation Xrotation
							JOINT Head
							{
								OFFSET -0.000000 5.101515 -0.000000
								CHANNELS 3 Zrotation Yrotation Xrotation
								JOINT HeadEnd
								{
									OFFSET 0.000000 11.655085 0.000000
									CHANNELS 3 Zrotation Yrotation Xrotation
									End Site
									{
										OFFSET 0.000000 0.000000 0.000000
									}
								}
							}
						}
					}
					JOINT RightShoulder
					{
						OFFSET -2.625389 11.175210 0.000000
						CHANNELS 3 Zrotation Yrotation Xrotation
						JOINT RightArm
						{
							OFFSET 0.000000 10.434715 -0.000000
							CHANNELS 3 Zrotation Yrotation Xrotation
							JOINT RightForeArm
							{
								OFFSET -0.000000 29.628420 0.000000
								CHANNELS 3 Zrotation Yrotation Xrotation
								JOINT RightHand
								{
									OFFSET -0.000000 22.857611 0.000000
									CHANNELS 3 Zrotation Yrotation Xrotation
									JOINT RightHandThumb1
									{
										OFFSET -2.867323 3.959563 2.944291
										CHANNELS 3 Zrotation Yrotation Xrotation
										JOINT RightHandThumb2
										{
											OFFSET -0.000000 3.350399 0.000000
											CHANNELS 3 Zrotation Yrotation Xrotation
											JOINT RightHandThumb3
											{
												OFFSET 0.000000 3.756509 -0.000000
												CHANNELS 3 Zrotation Yrotation Xrotation
												JOINT RightHandThumb4
												{
													OFFSET -0.000000 3.147345 0.000000
													CHANNELS 3 Zrotation Yrotation Xrotation
													End Site
													{
														OFFSET 0.000000 0.000000 0.000000
													}
												}
											}
										}
									}
									JOINT RightHandIndex1
									{
										OFFSET -0.086752 10.030893 2.345280
										CHANNELS 3 Zrotation Yrotation Xrotation
										JOINT RightHandIndex2
										{
											OFFSET 0.000000 4.061090 -0.000000
											CHANNELS 3 Zrotation Yrotation Xrotation
											JOINT RightHandIndex3
											{
												OFFSET 0.000000 3.248873 -0.000000
												CHANNELS 3 Zrotation Yrotation Xrotation
												JOINT RightHandIndex4
												{
													OFFSET 0.000000 2.639709 -0.000000
													CHANNELS 3 Zrotation Yrotation Xrotation
													End Site
													{
														OFFSET 0.000000 0.000000 0.000000
													}
												}
											}
										}
									}
									JOINT RightHandMiddle1
									{
										OFFSET 0.104102 9.502952 0.006768
										CHANNELS 3 Zrotation Yrotation Xrotation
										JOINT RightHandMiddle2
										{
											OFFSET 0.000000 4.568727 -0.000000
											CHANNELS 3 Zrotation Yrotation Xrotation
											JOINT RightHandMiddle3
											{
												OFFSET -0.000000 3.654981 0.000000
												CHANNELS 3 Zrotation Yrotation Xrotation
												JOINT RightHandMiddle4
												{
													OFFSET 0.000000 2.741236 0.000000
													CHANNELS 3 Zrotation Yrotation Xrotation
													End Site
													{
														OFFSET 0.000000 0.000000 0.000000
													}
												}
											}
										}
									}
									JOINT RightHandRing1
									{
										OFFSET 0.086752 8.921708 -2.267442
										CHANNELS 3 Zrotation Yrotation Xrotation
										JOINT RightHandRing2
										{
											OFFSET 0.000000 4.061090 -0.000000
											CHANNELS 3 Zrotation Yrotation Xrotation
											JOINT RightHandRing3
											{
												OFFSET -0.000000 3.654981 0.000000
												CHANNELS 3 Zrotation Yrotation Xrotation
												JOINT RightHandRing4
												{
													OFFSET 0.000000 2.741236 -0.000000
													CHANNELS 3 Zrotation Yrotation Xrotation
													End Site
													{
														OFFSET 0.000000 0.000000 0.000000
													}
												}
											}
										}
									}
									JOINT RightHandPinky1
									{
										OFFSET -0.173504 7.976997 -4.467199
										CHANNELS 3 Zrotation Yrotation Xrotation
										JOINT RightHandPinky2
										{
											OFFSET 0.000000 3.350399 0.000000
											CHANNELS 3 Zrotation Yrotation Xrotation
											JOINT RightHandPinky3
											{
												OFFSET 0.000000 2.842763 -0.000000
												CHANNELS 3 Zrotation Yrotation Xrotation
												JOINT RightHandPinky4
												{
													OFFSET -0.000000 2.639709 -0.000000
													CHANNELS 3 Zrotation Yrotation Xrotation
													End Site
													{
														OFFSET 0.000000 0.000000 0.000000
													}
												}
											}
										}
									}
									JOINT RightForeArmEnd
									{
										OFFSET 0.000000 0.000000 0.000000
										CHANNELS 3 Zrotation Yrotation Xrotation
										End Site
										{
											OFFSET 0.000000 0.000000 0.000000
										}
									}
								}
								JOINT RightArmEnd
								{
									OFFSET 0.000000 0.000000 0.000000
									CHANNELS 3 Zrotation Yrotation Xrotation
									End Site
									{
										OFFSET 0.000000 0.000000 0.000000
									}
								}
							}
						}
					}
					JOINT LeftShoulder
					{
						OFFSET 2.625389 11.175210 -0.000000
						CHANNELS 3 Zrotation Yrotation Xrotation
						JOINT LeftArm
						{
							OFFSET -0.000000 10.813635 0.000000
							CHANNELS 3 Zrotation Yrotation Xrotation
							JOINT LeftForeArm
							{
								OFFSET -0.000000 28.724781 0.000000
								CHANNELS 3 Zrotation Yrotation Xrotation
								JOINT LeftHand
								{
									OFFSET 0.644384 25.716167 -0.328871
									CHANNELS 3 Zrotation Yrotation Xrotation
									JOINT LeftHandThumb1
									{
										OFFSET 2.867323 3.959563 2.944291
										CHANNELS 3 Zrotation Yrotation Xrotation
										JOINT LeftHandThumb2
										{
											OFFSET -0.000000 3.350399 0.000000
											CHANNELS 3 Zrotation Yrotation Xrotation
											JOINT LeftHandThumb3
											{
												OFFSET -0.000000 3.756509 -0.000000
												CHANNELS 3 Zrotation Yrotation Xrotation
												JOINT LeftHandThumb4
												{
													OFFSET 0.000000 3.100000 -0.000000
													CHANNELS 3 Zrotation Yrotation Xrotation
													End Site
													{
														OFFSET 0.000000 0.000000 0.000000
													}
												}
											}
										}
									}
									JOINT LeftHandIndex1
									{
										OFFSET 0.086752 10.030893 2.345280
										CHANNELS 3 Zrotation Yrotation Xrotation
										JOINT LeftHandIndex2
										{
											OFFSET -0.000000 4.061090 0.000000
											CHANNELS 3 Zrotation Yrotation Xrotation
											JOINT LeftHandIndex3
											{
												OFFSET 0.000000 3.248873 0.000000
												CHANNELS 3 Zrotation Yrotation Xrotation
												JOINT LeftHandIndex4
												{
													OFFSET 0.000000 2.639709 -0.000000
													CHANNELS 3 Zrotation Yrotation Xrotation
													End Site
													{
														OFFSET 0.000000 0.000000 0.000000
													}
												}
											}
										}
									}
									JOINT LeftHandMiddle1
									{
										OFFSET -0.104102 9.502952 0.006768
										CHANNELS 3 Zrotation Yrotation Xrotation
										JOINT LeftHandMiddle2
										{
											OFFSET 0.000000 4.568727 -0.000000
											CHANNELS 3 Zrotation Yrotation Xrotation
											JOINT LeftHandMiddle3
											{
												OFFSET 0.000000 3.654981 0.000000
												CHANNELS 3 Zrotation Yrotation Xrotation
												JOINT LeftHandMiddle4
												{
													OFFSET -0.000000 2.741236 -0.000000
													CHANNELS 3 Zrotation Yrotation Xrotation
													End Site
													{
														OFFSET 0.000000 0.000000 0.000000
													}
												}
											}
										}
									}
									JOINT LeftHandRing1
									{
										OFFSET -0.086752 8.921708 -2.267442
										CHANNELS 3 Zrotation Yrotation Xrotation
										JOINT LeftHandRing2
										{
											OFFSET -0.000000 4.061090 -0.000000
											CHANNELS 3 Zrotation Yrotation Xrotation
											JOINT LeftHandRing3
											{
												OFFSET 0.000000 3.654981 0.000000
												CHANNELS 3 Zrotation Yrotation Xrotation
												JOINT LeftHandRing4
												{
													OFFSET -0.000000 2.741236 -0.000000
													CHANNELS 3 Zrotation Yrotation Xrotation
													End Site
													{
														OFFSET 0.000000 0.000000 0.000000
													}
												}
											}
										}
									}
									JOINT LeftHandPinky1
									{
										OFFSET 0.173504 7.976997 -4.467199
										CHANNELS 3 Zrotation Yrotation Xrotation
										JOINT LeftHandPinky2
										{
											OFFSET 0.000000 3.350399 0.000000
											CHANNELS 3 Zrotation Yrotation Xrotation
											JOINT LeftHandPinky3
											{
												OFFSET -0.000000 2.842763 -0.000000
												CHANNELS 3 Zrotation Yrotation Xrotation
												JOINT LeftHandPinky4
												{
													OFFSET -0.000000 2.639709 -0.000000
													CHANNELS 3 Zrotation Yrotation Xrotation
													End Site
													{
														OFFSET 0.000000 0.000000 0.000000
													}
												}
											}
										}
									}
									JOINT LeftForeArmEnd
									{
										OFFSET 0.000000 0.000000 0.000000
										CHANNELS 3 Zrotation Yrotation Xrotation
										End Site
										{
											OFFSET 0.000000 0.000000 0.000000
										}
									}
								}
								JOINT LeftArmEnd
								{
									OFFSET 0.000000 0.000000 0.000000
									CHANNELS 3 Zrotation Yrotation Xrotation
									End Site
									{
										OFFSET 0.000000 0.000000 0.000000
									}
								}
							}
						}
					}
				}
			}
		}
	}
	JOINT RightUpLeg
	{
		OFFSET -11.289943 0.000000 0.000000
		CHANNELS 3 Zrotation Yrotation Xrotation
		JOINT RightLeg
		{
			OFFSET -0.000000 -38.200325 -0.000000
			CHANNELS 3 Zrotation Yrotation Xrotation
			JOINT RightFoot
			{
				OFFSET -0.000000 -39.900856 -0.000000
				CHANNELS 3 Zrotation Yrotation Xrotation
				JOINT RightToeBase
				{
					OFFSET 0.000000 0.000000 15.261641
					CHANNELS 3 Zrotation Yrotation Xrotation
					JOINT RightToeBaseEnd
					{
						OFFSET 0.000000 0.000000 7.370709
						CHANNELS 3 Zrotation Yrotation Xrotation
						End Site
						{
							OFFSET 0.000000 0.000000 0.000000
						}
					}
				}
				JOINT RightLegEnd
				{
					OFFSET 0.000000 0.000000 0.000000
					CHANNELS 3 Zrotation Yrotation Xrotation
					End Site
					{
						OFFSET 0.000000 0.000000 0.000000
					}
				}
			}
			JOINT RightUpLegEnd
			{
				OFFSET 0.000000 0.000000 0.000000
				CHANNELS 3 Zrotation Yrotation Xrotation
				End Site
				{
					OFFSET 0.000000 0.000000 0.000000
				}
			}
		}
	}
	JOINT LeftUpLeg
	{
		OFFSET 11.315661 0.000000 -0.000000
		CHANNELS 3 Zrotation Yrotation Xrotation
		JOINT LeftLeg
		{
			OFFSET 0.000000 -38.200325 0.000000
			CHANNELS 3 Zrotation Yrotation Xrotation
			JOINT LeftFoot
			{
				OFFSET 0.000000 -39.900856 -0.000000
				CHANNELS 3 Zrotation Yrotation Xrotation
				JOINT LeftToeBase
				{
					OFFSET 0.000000 0.000000 15.261641
					CHANNELS 3 Zrotation Yrotation Xrotation
					JOINT LeftToeBaseEnd
					{
						OFFSET -0.000000 0.000000 7.539996
						CHANNELS 3 Zrotation Yrotation Xrotation
						End Site
						{
							OFFSET 0.000000 0.000000 0.000000
						}
					}
				}
				JOINT LeftLegEnd
				{
					OFFSET 0.000000 0.000000 0.000000
					CHANNELS 3 Zrotation Yrotation Xrotation
					End Site
					{
						OFFSET 0.000000 0.000000 0.000000
					}
				}
			}
			JOINT LeftUpLegEnd
			{
				OFFSET 0.000000 0.000000 0.000000
				CHANNELS 3 Zrotation Yrotation Xrotation
				End Site
				{
					OFFSET 0.000000 0.000000 0.000000
				}
			}
		}
	}
}
MOTION
Frames: 4
Frame Time: 0.016667
3.936941 86.974205 10.577003 -3.446570 -11.017549 -13.241922 2.279460 0.387816 9.368217 -0.405525 0.484518 2.970979 -0.112369 1.057111 9.839619 -2.037640 0.921630 4.254093 7.593187 -0.434853 -0.356830 0.719290 2.640112 -6.418484 -1.188980 -1.156141 -18.293140 0.000000 0.000000 0.000000 86.732384 0.867875 15.710930 46.547508 -22.836926 19.134239 -1.159743 18.476421 91.871002 22.955202 36.714035 17.940554 11.504815 -1.947451 39.477394 0.000003 -0.000025 -28.152765 -0.000015 0.000039 -19.460371 -0.000009 0.000001 -0.000001 16.798086 -0.044422 -7.037383 11.582956 -0.177254 0.343243 11.694251 -0.156444 0.270946 -0.000001 0.000025 -0.000002 17.269300 -0.052382 -8.143868 11.274352 -0.061222 0.089299 11.760298 -0.032877 0.085553 -0.000021 -0.000008 0.000022 22.512978 0.018064 -8.818307 14.327981 0.075937 -0.016334 14.209507 0.030875 -0.004855 0.000014 -0.000814 0.000012 23.897291 0.007066 -10.694172 15.735693 0.159116 0.387185 14.926758 0.081905 0.293824 0.000777 -0.000001 -0.000020 0.000000 0.000000 0.000000 0.000000 0.000000 0.000000 -86.390190 -0.493559 9.381033 -64.241501 4.375432 -2.183578 -0.974632 -18.270052 77.656464 -14.796959 -43.981380 5.854282 -8.420650 1.516244 40.876575 -0.000011 0.000012 -21.119551 -0.000018 -0.000043 -14.650599 0.000532 -0.000013 -0.001813 -2.580035 0.063357 -4.495784 -3.811596 -0.221055 -0.799008 -4.174053 -0.188995 -0.698522 0.000039 0.000462 -0.000000 -3.624499 0.023690 -5.747674 -4.149284 -0.091976 -0.290424 -4.222926 -0.056398 -0.233782 0.002241 -0.000042 0.000088 -10.788329 -0.000351 -8.749657 -7.602420 0.155135 0.355125 -7.021704 0.079902 0.255997 -0.001616 0.000024 -0.000001 -15.993042 0.007908 -12.625446 -10.669886 0.348703 1.068777 -10.601089 0.248002 0.792828 -0.000558 -0.000001 -0.000034 0.000000 0.000000 0.000000 0.000000 0.000000 0.000000 -4.906247 -8.624087 2.104596 -0.225803 -0.759181 21.985018 3.531885 -13.118941 20.784143 -1.160075 1.252859 -19.948643 0.000000 0.000000 0.000000 0.000000 0.000000 0.000000 0.000000 0.000000 0.000000 5.725048 3.983206 5.339057 0.146393 0.069688 26.016613 -1.174441 18.494194 9.123664 0.897246 -0.300402 -20.214531 0.000000 0.000000 0.000000 0.000000 0.000000 0.000000 0.000000 0.000000 0.000000 
3.460113 86.973839 10.664434 -3.376180 -11.624887 -13.044666 2.224186 0.411259 9.247673 -0.465551 0.485443 2.889380 -0.000228 0.966840 9.471278 -1.969629 0.887154 4.227138 7.412208 -0.253873 -0.133747 0.728040 2.810438 -6.262302 -1.228413 -1.160170 -18.434105 0.000000 0.000000 0.000000 86.441238 0.876456 15.228053 46.079105 -21.003027 18.027233 -1.178724 18.382032 93.787514 24.914146 38.332127 19.980350 11.338236 -1.934725 39.548782 0.000004 -0.000026 -27.769415 -0.000018 0.000038 -19.198393 -0.000009 0.000001 -0.000001 15.837985 -0.039593 -6.823013 10.958834 -0.179075 0.355381 11.072235 -0.159826 0.282100 -0.000000 0.000024 -0.000002 16.380211 -0.052243 -8.018604 10.656528 -0.063035 0.095964 11.150686 -0.034779 0.092119 -0.000021 -0.000010 0.000022 21.608976 0.019743 -8.892056 13.692693 0.078147 -0.029259 13.581708 0.033309 -0.015344 0.000015 -0.001044 0.000013 23.012833 0.011779 -10.924041 15.150078 0.166028 0.350254 14.342054 0.090867 0.259623 0.000742 -0.000000 -0.000021 0.000000 0.000000 0.000000 0.000000 0.000000 0.000000 -86.045456 -0.501776 8.964778 -63.923252 2.764888 -3.051345 -0.947359 -18.372091 81.041985 -19.834467 -46.061440 10.847646 -8.240331 1.495746 40.958454 -0.000010 0.000012 -20.660828 -0.000022 -0.000043 -14.346949 0.000510 -0.000012 -0.001790 -1.675877 0.063908 -3.938313 -3.250206 -0.221949 -0.803032 -3.602608 -0.189261 -0.709290 0.000039 0.000304 -0.000001 -2.841417 0.022469 -5.344667 -3.614617 -0.092455 -0.291868 -3.685707 -0.056875 -0.235672 0.002515 -0.000042 0.000107 -10.168003 -0.002384 -8.593220 -7.154281 0.153538 0.363374 -6.580939 0.080226 0.261152 -0.001584 0.000024 -0.000001 -15.586551 0.008700 -12.725841 -10.338473 0.347171 1.085504 -10.281782 0.246860 0.803858 -0.000627 -0.000001 -0.000033 0.000000 0.000000 0.000000 0.000000 0.000000 0.000000 -4.966209 -8.496087 1.910120 -0.229175 -0.786938 21.557726 3.573445 -12.793556 20.763193 -1.180067 1.278786 -19.883070 0.000000 0.000000 0.000000 0.000000 0.000000 0.000000 0.000000 0.000000 0.000000 6.040492 4.267820 5.485298 0.156351 0.104562 25.713364 -1.506275 18.854553 9.221892 0.922886 -0.321767 -20.254084 0.000000 0.000000 0.000000 0.000000 0.000000 0.000000 0.000000 0.000000 0.000000 
2.964705 86.982513 10.756090 -3.301437 -12.182728 -12.832683 2.171015 0.433845 9.110257 -0.524531 0.487970 2.812183 0.091324 0.883774 9.061654 -1.907268 0.852409 4.196462 7.265122 -0.063174 0.185251 0.738005 2.993647 -6.058460 -1.268690 -1.158465 -18.589748 0.000000 0.000000 0.000000 86.066475 0.891326 14.722501 45.380505 -19.097292 16.927143 -1.184639 18.255125 95.399513 26.901094 39.673996 21.791361 11.169195 -1.922230 39.621307 0.000004 -0.000027 -27.374590 -0.000021 0.000037 -18.929047 -0.000009 0.000002 -0.000000 14.874827 -0.035332 -6.626234 10.319522 -0.180279 0.366037 10.432703 -0.162805 0.291642 0.000000 0.000023 -0.000002 15.480404 -0.052113 -7.912385 10.020364 -0.064612 0.102240 10.522650 -0.036626 0.098046 -0.000021 -0.000014 0.000022 20.700045 0.021589 -8.984232 13.041461 0.080159 -0.041142 12.939699 0.035566 -0.025084 0.000016 -0.001288 0.000014 22.135281 0.017664 -11.166860 14.553991 0.171296 0.315588 13.749493 0.098963 0.227093 0.000703 0.000000 -0.000021 0.000000 0.000000 0.000000 0.000000 0.000000 0.000000 -85.628586 -0.515121 8.511783 -63.550522 1.059232 -3.874417 -0.937292 -18.421722 84.380737 -25.668293 -48.020363 16.386557 -8.142838 1.483228 41.004089 -0.000010 0.000013 -20.406654 -0.000025 -0.000043 -14.181822 0.000492 -0.000011 -0.001786 -1.189922 0.063678 -3.481673 -2.947998 -0.219624 -0.789912 -3.290968 -0.186346 -0.704210 0.000040 0.000172 -0.000001 -2.446146 0.021097 -5.004342 -3.330046 -0.091589 -0.287053 -3.399041 -0.056365 -0.232146 0.002784 -0.000041 0.000127 -9.901109 -0.004515 -8.444112 -6.941820 0.149808 0.362683 -6.379216 0.079254 0.260002 -0.001533 0.000024 -0.000000 -15.471450 0.009212 -12.773776 -10.204797 0.340628 1.077157 -10.161217 0.241700 0.795785 -0.000711 -0.000000 -0.000033 0.000000 0.000000 0.000000 0.000000 0.000000 0.000000 -5.034684 -8.343870 1.691542 -0.233102 -0.815715 21.129805 3.620499 -12.437040 20.774561 -1.196511 1.307703 -19.830982 0.000000 0.000000 0.000000 0.000000 0.000000 0.000000 0.000000 0.000000 0.000000 6.367311 4.539306 5.651583 0.166256 0.138756 25.361389 -1.849750 19.198435 9.355339 0.950142 -0.341898 -20.304079 0.000000 0.000000 0.000000 0.000000 0.000000 0.000000 0.000000 0.000000 0.000000 
2.451525 87.000237 10.851273 -3.224130 -12.685417 -12.607087 2.124077 0.454376 8.955366 -0.579298 0.491491 2.746514 0.156310 0.801866 8.616816 -1.853444 0.815475 4.165846 7.145233 0.137379 0.576681 0.749871 3.188262 -5.822181 -1.310904 -1.152307 -18.758936 0.000000 0.000000 0.000000 85.613655 0.908477 14.195183 44.475666 -17.119160 15.826635 -1.176471 18.129131 96.742287 28.909037 40.739246 23.351639 10.996189 -1.909580 39.695835 0.000004 -0.000028 -26.964149 -0.000023 0.000036 -18.648581 -0.000008 0.000003 -0.000000 13.911106 -0.031328 -6.437484 9.672139 -0.181473 0.377457 9.783349 -0.165877 0.301622 0.000001 0.000022 -0.000002 14.568115 -0.051868 -7.816935 9.371512 -0.066185 0.108930 9.881767 -0.038562 0.104035 -0.000021 -0.000018 0.000022 19.778107 0.023564 -9.089968 12.374842 0.082472 -0.053094 12.283747 0.037948 -0.034999 0.000017 -0.001524 0.000014 21.260145 0.024877 -11.426509 13.944364 0.176661 0.279506 13.145820 0.107345 0.193395 0.000665 0.000001 -0.000021 0.000000 0.000000 0.000000 0.000000 0.000000 0.000000 -85.153519 -0.532867 8.028716 -63.103371 -0.748493 -4.638858 -0.945656 -18.432613 87.626091 -32.187130 -49.724674 22.347431 -8.114381 1.477543 41.019112 -0.000010 0.000014 -20.325521 -0.000029 -0.000043 -14.133530 0.000488 -0.000011 -0.001794 -1.044016 0.062838 -3.113112 -2.858649 -0.214840 -0.764141 -3.192502 -0.181006 -0.687294 0.000040 0.000073 -0.000001 -2.364491 0.019637 -4.720442 -3.249722 -0.089686 -0.277797 -3.316735 -0.055090 -0.224709 0.003045 -0.000041 0.000149 -9.918574 -0.006688 -8.308365 -6.915454 0.144605 0.355287 -6.366664 0.077346 0.254248 -0.001465 0.000024 -0.000000 -15.586337 0.009821 -12.787802 -10.224507 0.330701 1.050554 -10.193139 0.233772 0.774426 -0.000808 -0.000000 -0.000033 0.000000 0.000000 0.000000 0.000000 0.000000 0.000000 -5.103916 -8.180601 1.454645 -0.237386 -0.844803 20.704657 3.667890 -12.054365 20.809191 -1.209374 1.339159 -19.791767 0.000000 0.000000 0.000000 0.000000 0.000000 0.000000 0.000000 0.000000 0.000000 6.705996 4.800742 5.834035 0.176271 0.172241 24.978577 -2.206367 19.509970 9.514212 0.978188 -0.359781 -20.366480 0.000000 0.000000 0.000000 0.000000 0.000000 0.000000 0.000000 0.000000 0.000000 
